# xmcd
#
# Track frame offsets:
#	150
#	1457
#	7415
#	11158
#	14574
#	20950
#	25084
#	31333
#	35234
#	40360
#	45392
#	50590
#	53057
#	83754
#	88213
#	99069
#	103468
#	120486
#	126210
#	129965
#	147557
#	150448
#	156585
#	158388
#	167865
#
# Disc length: 2253 seconds
#
# Revision: 0
# Processed by: cddbd v1.5.2PL0 Copyright (c) Steve Scherf et al.
# Submitted via: EZCDAudioConverter 7.0.6.1
#
DISCID=4e08cb19
DTITLE=Focus Group - Stop-Motion Happening With
DYEAR=1900
DGENRE=
TTITLE0=CineToneOne
TTITLE1=Arpington Main
TTITLE2=The Brand Spanking NOW
TTITLE3=Local Computer
TTITLE4=Rotaty Vision
TTITLE5=Village Of Numbers
TTITLE6=Hazy Time
TTITLE7=Refractional
TTITLE8=Stage Craft and Screens
TTITLE9=The Hazy Whom
TTITLE10=The Pseudo Star
TTITLE11=POPPERALL
TTITLE12=Medium In The Mirror
TTITLE13=Sir John Pepper
TTITLE14=Stop Motion Happening
TTITLE15=Other Scene
TTITLE16=Wurlitzer Wheez
TTITLE17=Rendering The Forests
TTITLE18=Kinodrome KOOLAID
TTITLE19=New Toytown Walk
TTITLE20=Pepper's Code
TTITLE21=The Gone Outside
TTITLE22=We Are Becoming Real
TTITLE23=New Town Exit
TTITLE24=CineToneSineOff
EXTD=
EXTT0=
EXTT1=
EXTT2=
EXTT3=
EXTT4=
EXTT5=
EXTT6=
EXTT7=
EXTT8=
EXTT9=
EXTT10=
EXTT11=
EXTT12=
EXTT13=
EXTT14=
EXTT15=
EXTT16=
EXTT17=
EXTT18=
EXTT19=
EXTT20=
EXTT21=
EXTT22=
EXTT23=
EXTT24=
PLAYORDER=
